<?xml version="1.0" encoding="UTF-8" standalone="no"?>
<svg
   xmlns:dc="http://purl.org/dc/elements/1.1/"
   xmlns:cc="http://creativecommons.org/ns#"
   xmlns:rdf="http://www.w3.org/1999/02/22-rdf-syntax-ns#"
   xmlns:svg="http://www.w3.org/2000/svg"
   xmlns="http://www.w3.org/2000/svg"
   xmlns:sodipodi="http://sodipodi.sourceforge.net/DTD/sodipodi-0.dtd"
   xmlns:inkscape="http://www.inkscape.org/namespaces/inkscape"
   id="Untitled-Page%201"
   viewBox="0 0 222 40"
   style="background-color:#ffffff00"
   version="1.1"
   xml:space="preserve"
   x="0px"
   y="0px"
   width="222px"
   height="40px"
   inkscape:version="0.91 r13725"
   sodipodi:docname="uop-logo--white.svg"><metadata
     id="metadata4329"><rdf:RDF><cc:Work
         rdf:about=""><dc:format>image/svg+xml</dc:format><dc:type
           rdf:resource="http://purl.org/dc/dcmitype/StillImage" /><dc:title></dc:title></cc:Work></rdf:RDF></metadata><defs
     id="defs4327" /><sodipodi:namedview
     pagecolor="#ffffff"
     bordercolor="#666666"
     borderopacity="1"
     objecttolerance="10"
     gridtolerance="10"
     guidetolerance="10"
     inkscape:pageopacity="0"
     inkscape:pageshadow="2"
     inkscape:window-width="1366"
     inkscape:window-height="710"
     id="namedview4325"
     showgrid="false"
     inkscape:zoom="3.2657658"
     inkscape:cx="111"
     inkscape:cy="20"
     inkscape:window-x="0"
     inkscape:window-y="27"
     inkscape:window-maximized="1"
     inkscape:current-layer="title" /><g
     id="circles"><path
       d="M 52.8979 26.2612 C 60.0615 26.2612 65.8691 20.4536 65.8691 13.2905 C 65.8691 6.1265 60.0615 0.3198 52.8979 0.3198 C 45.7349 0.3198 39.9282 6.1265 39.9282 13.2905 C 39.9282 20.4536 45.7349 26.2612 52.8979 26.2612 Z"
       fill="#59379E"
       id="path4272"
       style="fill:#ffffff;fill-opacity:1" /><path
       d="M 24 26.2612 C 31.1646 26.2612 37.3086 20.4536 37.3086 13.2905 C 37.3086 6.1265 31.1646 0.3198 24 0.3198 L 24 26.2612 Z"
       fill="#59379E"
       id="path4274"
       style="fill:#ffffff;fill-opacity:1" /><path
       d="M 24 39.0688 C 20.4634 39.0688 17.9331 36.2017 17.9331 32.6646 C 17.9331 29.1284 20.4634 26.2612 24 26.2612 L 24 39.0688 Z"
       fill="#59379E"
       id="path4276"
       style="fill:#ffffff;fill-opacity:1" /><path
       d="M 6.8936 39.0688 C 3.3564 39.0688 0.4893 36.2017 0.4893 32.6646 C 0.4893 29.1284 3.3564 26.2612 6.8936 26.2612 C 10.4302 26.2612 13.2983 29.1284 13.2983 32.6646 C 13.2983 36.2017 10.4302 39.0688 6.8936 39.0688 Z"
       fill="#59379E"
       id="path4278"
       style="fill:#ffffff;fill-opacity:1" /></g><g
     id="title"><path
       d="M 80.8193 0.2412 L 80.8193 10.5132 C 80.8193 12.5776 81.2515 16.8735 86.1953 16.8735 C 90.3955 16.8735 91.8115 14.4014 91.8115 10.5132 L 91.8115 0.2412 L 92.8677 0.2412 L 92.8677 10.5132 C 92.8677 14.5933 91.3315 17.7856 86.1953 17.7856 C 80.0996 17.7856 79.7637 12.7935 79.7637 10.5132 L 79.7637 0.2412 L 80.8193 0.2412 Z"
       fill="#000"
       id="path4281"
       style="fill:#ffffff;fill-opacity:1" /><path
       d="M 97.6196 5.0415 L 98.5313 5.0415 L 98.5313 7.6812 L 98.5796 7.6812 C 99.2036 5.8335 101.0752 4.7534 102.9956 4.7534 C 107.3394 4.7534 107.3877 8.2334 107.3877 9.7456 L 107.3877 17.3774 L 106.4756 17.3774 L 106.4756 9.5771 C 106.4756 8.3052 106.3315 5.5454 102.9712 5.5454 C 100.2114 5.5454 98.5313 7.6812 98.5313 10.7056 L 98.5313 17.3774 L 97.6196 17.3774 L 97.6196 5.0415 Z"
       fill="#000"
       id="path4283"
       style="fill:#ffffff;fill-opacity:1" /><path
       d="M 112.4707 17.3774 L 112.4707 5.0415 L 113.3823 5.0415 L 113.3823 17.3774 L 112.4707 17.3774 ZM 112.4707 2.7134 L 112.4707 0.2412 L 113.3823 0.2412 L 113.3823 2.7134 L 112.4707 2.7134 Z"
       fill="#000"
       id="path4285"
       style="fill:#ffffff;fill-opacity:1" /><path
       d="M 123.3115 17.3774 L 122.1831 17.3774 L 117.2153 5.0415 L 118.2715 5.0415 L 122.7354 16.3213 L 122.7832 16.3213 L 126.9595 5.0415 L 127.9673 5.0415 L 123.3115 17.3774 Z"
       fill="#000"
       id="path4287"
       style="fill:#ffffff;fill-opacity:1" /><path
       d="M 132.0854 10.5376 C 132.2773 8.0894 133.8853 5.5454 136.6216 5.5454 C 139.4536 5.5454 141.0854 7.9453 141.1333 10.5376 L 132.0854 10.5376 ZM 142.0454 11.3296 C 142.2134 7.8013 140.4854 4.7534 136.6216 4.7534 C 132.9014 4.7534 131.1255 8.0415 131.1733 11.4253 C 131.1255 14.8335 133.0215 17.6655 136.6216 17.6655 C 139.5493 17.6655 141.4692 16.0815 141.9492 13.2012 L 141.0376 13.2012 C 140.6055 15.4814 138.9492 16.8735 136.6216 16.8735 C 133.5732 16.8735 132.0376 14.2334 132.0854 11.3296 L 142.0454 11.3296 Z"
       fill="#000"
       id="path4289"
       style="fill:#ffffff;fill-opacity:1" /><path
       d="M 147.8389 7.7773 L 147.9111 7.7773 C 148.3911 6.1694 150.4067 4.8735 152.6392 4.9692 L 152.6392 5.8813 C 151.6787 5.7612 150.335 6.0015 149.231 7.0815 C 148.3188 8.0176 147.9351 8.7852 147.8389 10.6333 L 147.8389 17.3774 L 146.9268 17.3774 L 146.9268 5.0415 L 147.8389 5.0415 L 147.8389 7.7773 Z"
       fill="#000"
       id="path4291"
       style="fill:#ffffff;fill-opacity:1" /><path
       d="M 156.6348 13.2734 C 156.7788 15.5532 158.4829 16.8735 160.7148 16.8735 C 162.3228 16.8735 164.627 16.3936 164.627 14.2573 C 164.627 12.1694 162.5151 11.8574 160.4028 11.4253 C 158.2671 10.9932 156.1548 10.4414 156.1548 7.9214 C 156.1548 5.4731 158.5308 4.7534 160.6191 4.7534 C 163.2349 4.7534 165.1792 5.8813 165.1792 8.6895 L 164.2671 8.6895 C 164.2432 6.4575 162.6831 5.5454 160.6191 5.5454 C 158.939 5.5454 157.0669 6.1694 157.0669 7.9214 C 157.0669 9.8892 159.1787 10.2012 161.1709 10.6333 C 163.6191 11.0894 165.5391 11.6655 165.5391 14.2573 C 165.5391 16.9214 162.875 17.6655 160.7148 17.6655 C 157.9067 17.6655 155.7949 16.1533 155.7231 13.2734 L 156.6348 13.2734 Z"
       fill="#000"
       id="path4293"
       style="fill:#ffffff;fill-opacity:1" /><path
       d="M 170.8496 17.3774 L 170.8496 5.0415 L 171.7617 5.0415 L 171.7617 17.3774 L 170.8496 17.3774 ZM 170.8496 2.7134 L 170.8496 0.2412 L 171.7617 0.2412 L 171.7617 2.7134 L 170.8496 2.7134 Z"
       fill="#000"
       id="path4295"
       style="fill:#ffffff;fill-opacity:1" /><path
       d="M 181.6636 5.8335 L 178.9761 5.8335 L 178.9761 14.4492 C 178.9761 16.4414 179.9116 16.6333 181.6401 16.5854 L 181.6401 17.3774 C 179.7681 17.4976 177.9683 17.2334 178.064 14.4492 L 178.064 5.8335 L 175.7847 5.8335 L 175.7847 5.0415 L 178.064 5.0415 L 178.064 1.2012 L 178.9761 1.2012 L 178.9761 5.0415 L 181.6636 5.0415 L 181.6636 5.8335 Z"
       fill="#000"
       id="path4297"
       style="fill:#ffffff;fill-opacity:1" /><path
       d="M 184.0347 5.0415 L 185.1147 5.0415 L 189.6992 16.2974 L 193.9238 5.0415 L 194.9551 5.0415 L 189.6758 18.6973 C 189.1719 19.8975 188.7637 20.8335 188.2363 21.2412 C 187.5874 21.7456 186.7476 21.7935 185.355 21.7935 L 185.355 21.0015 C 186.6519 21.0015 187.2993 20.8335 187.9238 20.2095 C 188.2832 19.8496 188.6191 18.9375 189.1953 17.3057 L 184.0347 5.0415 Z"
       fill="#000"
       id="path4299"
       style="fill:#ffffff;fill-opacity:1" /><path
       d="M 201.8809 11.2095 C 201.8809 8.2573 203.5371 5.5454 206.6328 5.5454 C 209.7285 5.5454 211.3848 8.2573 211.3848 11.2095 C 211.3848 14.1616 209.7285 16.8735 206.6328 16.8735 C 203.5371 16.8735 201.8809 14.1616 201.8809 11.2095 ZM 200.9688 11.2095 C 200.9688 14.7134 203.0098 17.6655 206.6328 17.6655 C 210.2578 17.6655 212.2969 14.7134 212.2969 11.2095 C 212.2969 7.7056 210.2578 4.7534 206.6328 4.7534 C 203.0098 4.7534 200.9688 7.7056 200.9688 11.2095 Z"
       fill="#000"
       id="path4301"
       style="fill:#ffffff;fill-opacity:1" /><path
       d="M 215.5508 5.8335 L 215.5508 5.0415 L 217.7598 5.0415 L 217.7598 2.4976 C 217.7598 0.7695 218.9824 0.0493 220.4707 0.0493 C 220.832 0.0493 221.1914 0.0972 221.5508 0.1694 L 221.5508 0.9614 C 221.1914 0.8892 220.832 0.8413 220.4707 0.8413 C 219.4629 0.8413 218.6719 1.2012 218.6719 2.5693 L 218.6719 5.0415 L 221.2383 5.0415 L 221.2383 5.8335 L 218.6719 5.8335 L 218.6719 17.3774 L 217.7598 17.3774 L 217.7598 5.8335 L 215.5508 5.8335 Z"
       fill="#000"
       id="path4303"
       style="fill:#ffffff;fill-opacity:1" /><path
       d="M 84.9214 26.7114 L 87.2246 26.7114 C 88.4937 26.7114 89.6685 26.8057 89.6685 28.333 C 89.6685 30.0249 88.2588 30.1191 86.9189 30.1191 L 84.9214 30.1191 L 84.9214 26.7114 ZM 79.7515 39.1899 L 84.9214 39.1899 L 84.9214 34.1138 L 87.9766 34.1138 C 91.8306 34.1138 94.5566 32.2104 94.5566 28.145 C 94.5566 25.748 92.9585 22.4111 88.3994 22.4111 L 79.7515 22.4111 L 79.7515 39.1899 Z"
       fill="#000"
       id="path4305"
       style="fill:#ffffff;fill-opacity:1" /><path
       d="M 103.6743 33.0801 C 103.6743 34.3726 103.4395 36.1113 101.6768 36.1113 C 99.9146 36.1113 99.6797 34.3726 99.6797 33.0801 C 99.6797 31.7876 99.9146 30.0718 101.6768 30.0718 C 103.4395 30.0718 103.6743 31.7876 103.6743 33.0801 ZM 108.3276 33.0801 C 108.3276 29.6958 106.2593 26.688 101.6768 26.688 C 97.0942 26.688 95.0264 29.6958 95.0264 33.0801 C 95.0264 36.4639 97.0942 39.4956 101.6768 39.4956 C 106.2593 39.4956 108.3276 36.4639 108.3276 33.0801 Z"
       fill="#000"
       id="path4307"
       style="fill:#ffffff;fill-opacity:1" /><path
       d="M 109.9946 26.9937 L 114.4595 26.9937 L 114.4595 28.9438 L 114.5063 28.9438 C 115.2583 27.4868 116.2456 26.688 117.9375 26.688 C 118.4077 26.688 118.854 26.7583 119.3003 26.876 L 119.3003 30.9883 C 118.8306 30.8237 118.4077 30.6831 117.4673 30.6831 C 115.6343 30.6831 114.6475 31.7642 114.6475 34.3726 L 114.6475 39.1899 L 109.9946 39.1899 L 109.9946 26.9937 Z"
       fill="#000"
       id="path4309"
       style="fill:#ffffff;fill-opacity:1" /><path
       d="M 127.854 26.9937 L 130.3452 26.9937 L 130.3452 29.8604 L 127.854 29.8604 L 127.854 34.1138 C 127.854 35.2422 128.1128 35.7354 129.2876 35.7354 C 129.6401 35.7354 129.9927 35.7119 130.3452 35.665 L 130.3452 39.1899 C 129.4053 39.1899 128.3477 39.3311 127.3608 39.3311 C 125.3867 39.3311 123.2012 39.0254 123.2012 35.6885 L 123.2012 29.8604 L 121.1333 29.8604 L 121.1333 26.9937 L 123.2012 26.9937 L 123.2012 23.2803 L 127.854 23.2803 L 127.854 26.9937 Z"
       fill="#000"
       id="path4311"
       style="fill:#ffffff;fill-opacity:1" /><path
       d="M 140.0522 30.542 C 140.0288 30.1426 139.8174 29.8369 139.5117 29.6255 C 139.23 29.3906 138.854 29.2729 138.478 29.2729 C 137.8198 29.2729 137.0679 29.4141 137.0679 30.2129 C 137.0679 30.5654 137.3501 30.73 137.6084 30.8477 C 138.3838 31.1763 140.1465 31.2705 141.6973 31.7876 C 143.2485 32.2808 144.6113 33.1973 144.6113 35.1948 C 144.6113 38.5791 141.3687 39.4956 138.4072 39.4956 C 135.5405 39.4956 132.3916 38.3438 132.3208 35.1948 L 136.7622 35.1948 C 136.7861 35.6182 136.9741 35.9702 137.3267 36.2759 C 137.5615 36.4873 138.0078 36.6284 138.5718 36.6284 C 139.1831 36.6284 140.1465 36.3936 140.1465 35.6885 C 140.1465 34.9834 139.7471 34.772 137.585 34.396 C 134.0366 33.7852 132.603 32.6567 132.603 30.5654 C 132.603 27.4868 135.9165 26.688 138.3604 26.688 C 140.9922 26.688 144.165 27.4165 144.2822 30.542 L 140.0522 30.542 Z"
       fill="#000"
       id="path4313"
       style="fill:#ffffff;fill-opacity:1" /><path
       d="M 146.4443 26.9937 L 150.9326 26.9937 L 150.9326 28.6147 L 150.9795 28.6147 C 151.9194 27.2051 153.2827 26.688 154.9746 26.688 C 156.2905 26.688 157.7007 27.3696 158.2646 28.5913 C 158.4526 28.4507 159.3926 26.688 162.4243 26.688 C 165.5498 26.688 166.6069 28.8501 166.6069 30.8237 L 166.6069 39.1899 L 161.9541 39.1899 L 161.9541 32.5864 C 161.9541 31.4351 161.8364 30.4009 160.4268 30.4009 C 159.2515 30.4009 158.8521 31.3174 158.8521 32.5864 L 158.8521 39.1899 L 154.1992 39.1899 L 154.1992 32.5864 C 154.1992 31.4351 154.0815 30.4009 152.6719 30.4009 C 151.4966 30.4009 151.0972 31.3174 151.0972 32.5864 L 151.0972 39.1899 L 146.4443 39.1899 L 146.4443 26.9937 Z"
       fill="#000"
       id="path4315"
       style="fill:#ffffff;fill-opacity:1" /><path
       d="M 176.8745 33.0801 C 176.8745 34.3726 176.6401 36.1113 174.8774 36.1113 C 173.1147 36.1113 172.8799 34.3726 172.8799 33.0801 C 172.8799 31.7876 173.1147 30.0718 174.8774 30.0718 C 176.6401 30.0718 176.8745 31.7876 176.8745 33.0801 ZM 181.5278 33.0801 C 181.5278 29.6958 179.4604 26.688 174.8774 26.688 C 170.2949 26.688 168.2271 29.6958 168.2271 33.0801 C 168.2271 36.4639 170.2949 39.4956 174.8774 39.4956 C 179.4604 39.4956 181.5278 36.4639 181.5278 33.0801 Z"
       fill="#000"
       id="path4317"
       style="fill:#ffffff;fill-opacity:1" /><path
       d="M 196.0254 39.1899 L 191.5371 39.1899 L 191.5371 37.6392 L 191.4902 37.6392 C 190.6211 38.8608 189.375 39.4956 187.519 39.4956 C 185.3335 39.4956 183.3354 38.1558 183.3354 35.3594 L 183.3354 26.9937 L 187.9883 26.9937 L 187.9883 33.3853 C 187.9883 34.7954 188.1543 35.7822 189.5156 35.7822 C 190.3145 35.7822 191.373 35.3828 191.373 33.4326 L 191.373 26.9937 L 196.0254 26.9937 L 196.0254 39.1899 Z"
       fill="#000"
       id="path4319"
       style="fill:#ffffff;fill-opacity:1" /><path
       d="M 204.5098 26.9937 L 207.002 26.9937 L 207.002 29.8604 L 204.5098 29.8604 L 204.5098 34.1138 C 204.5098 35.2422 204.7695 35.7354 205.9434 35.7354 C 206.2969 35.7354 206.6484 35.7119 207.002 35.665 L 207.002 39.1899 C 206.0605 39.1899 205.0039 39.3311 204.0176 39.3311 C 202.043 39.3311 199.8574 39.0254 199.8574 35.6885 L 199.8574 29.8604 L 197.7891 29.8604 L 197.7891 26.9937 L 199.8574 26.9937 L 199.8574 23.2803 L 204.5098 23.2803 L 204.5098 26.9937 Z"
       fill="#000"
       id="path4321"
       style="fill:#ffffff;fill-opacity:1" /><path
       d="M 208.8359 22.4111 L 213.4883 22.4111 L 213.4883 28.3096 L 213.5352 28.3096 C 214.334 27.3696 215.3691 26.688 217.3418 26.688 C 219.5273 26.688 221.5254 28.0273 221.5254 30.8237 L 221.5254 39.1899 L 216.873 39.1899 L 216.873 32.7979 C 216.873 31.3877 216.709 30.4009 215.3457 30.4009 C 214.5469 30.4009 213.4883 30.8003 213.4883 32.751 L 213.4883 39.1899 L 208.8359 39.1899 L 208.8359 22.4111 Z"
       fill="#000"
       id="path4323"
       style="fill:#ffffff;fill-opacity:1" /></g></svg>