<?xml version="1.0" encoding="utf-8"?>
<!-- Generator: Adobe Illustrator 21.1.0, SVG Export Plug-In . SVG Version: 6.00 Build 0)  -->
<svg version="1.1"
	 id="Untitled-Page_x25_201" inkscape:version="0.91 r13725" sodipodi:docname="uop-logo--white.svg" xmlns:cc="http://creativecommons.org/ns#" xmlns:dc="http://purl.org/dc/elements/1.1/" xmlns:inkscape="http://www.inkscape.org/namespaces/inkscape" xmlns:rdf="http://www.w3.org/1999/02/22-rdf-syntax-ns#" xmlns:sodipodi="http://sodipodi.sourceforge.net/DTD/sodipodi-0.dtd" xmlns:svg="http://www.w3.org/2000/svg"
	 xmlns="http://www.w3.org/2000/svg" xmlns:xlink="http://www.w3.org/1999/xlink" x="0px" y="0px" viewBox="0 0 118.3 40"
	 style="enable-background:new 0 0 118.3 40;" xml:space="preserve">
<style type="text/css">
	.st0{fill:none;}
	.st1{fill:#FFFFFF;}
</style>
<path class="st0" d="z"/>
<sodipodi:namedview  bordercolor="#666666" borderopacity="1" gridtolerance="10" guidetolerance="10" id="namedview4325" inkscape:current-layer="title" inkscape:cx="111" inkscape:cy="20" inkscape:pageopacity="0" inkscape:pageshadow="2" inkscape:window-height="710" inkscape:window-maximized="1" inkscape:window-width="1366" inkscape:window-x="0" inkscape:window-y="27" inkscape:zoom="3.2657658" objecttolerance="10" pagecolor="#ffffff" showgrid="false">
	</sodipodi:namedview>
<path class="st0" d="z"/>
<g>
	<g>
		<path class="st1" d="M41.9,18.6c-2.2,0-3.4-1.3-3.4-3.3v-5.1h1.6v5c0,1.2,0.6,2,1.8,2c1.3,0,1.8-0.8,1.8-2v-5h1.6v5.1
			C45.3,17.2,44.1,18.6,41.9,18.6z"/>
		<path class="st1" d="M51.9,18.4l-3.8-5.6v5.6h-1.6v-8.2h1.7l3.7,5.6v-5.6h1.6v8.2H51.9z"/>
		<path class="st1" d="M54.9,18.4v-8.2h1.6v8.2H54.9z"/>
		<path class="st1" d="M62,18.4h-1.7l-2.9-8.2h1.7l2.1,6.3l2.1-6.3h1.6L62,18.4z"/>
		<path class="st1" d="M65.8,18.4v-8.2H72v1.4h-4.6v1.9h4v1.3h-4v2.2H72v1.4H65.8z"/>
		<path class="st1" d="M78.1,18.4l-1.4-3.1h-1.9v3.1h-1.6v-8.2h3.7c2.1,0,3,1.2,3,2.5c0,1.1-0.6,2-1.6,2.3l1.6,3.4H78.1z M76.8,11.5
			h-2.1V14h2.1c0.9,0,1.4-0.4,1.4-1.2C78.3,12.1,77.7,11.5,76.8,11.5z"/>
		<path class="st1" d="M86.6,17.7c-0.7,0.6-1.7,0.9-2.7,0.9c-0.9,0-1.9-0.2-2.6-0.8c-0.5-0.4-0.9-1.1-0.9-1.9h1.6
			c0,0.4,0.2,0.8,0.5,1c0.4,0.3,1,0.4,1.5,0.4c0.6,0,1.2-0.1,1.5-0.4c0.2-0.2,0.3-0.4,0.3-0.8c0-0.6-0.5-0.9-1-1
			c-0.6-0.1-1.3-0.1-1.9-0.2c-1.2-0.2-2.2-0.9-2.2-2.3c0-0.6,0.3-1.2,0.8-1.6c0.6-0.5,1.5-0.9,2.5-0.9c0.9,0,1.8,0.3,2.4,0.8
			c0.5,0.5,0.9,1.1,0.9,1.7h-1.6c0-0.3-0.2-0.6-0.4-0.8c-0.3-0.3-0.9-0.4-1.3-0.4c-0.5,0-1.1,0.1-1.4,0.5c-0.2,0.2-0.3,0.4-0.3,0.7
			c0,0.5,0.4,0.8,0.9,0.9c0.6,0.1,1.3,0.1,1.9,0.2c1.3,0.2,2.4,1,2.4,2.4C87.3,16.7,87,17.3,86.6,17.7z"/>
		<path class="st1" d="M88.4,18.4v-8.2H90v8.2H88.4z"/>
		<path class="st1" d="M95.2,11.6v6.8h-1.6v-6.8h-2.6v-1.4h6.7v1.4H95.2z"/>
		<path class="st1" d="M103.1,15.3v3.1h-1.6v-3.1l-3-5.1h1.7l2.1,3.5l2.1-3.5h1.6L103.1,15.3z"/>
	</g>
	<g>
		<path class="st1" d="M42.1,26.1h-1.8v3h-1.6v-8.2h3.4c2,0,3.1,1.1,3.1,2.6C45.2,25,44.1,26.1,42.1,26.1z M42.1,22.1h-1.8v2.7h1.8
			c1.1,0,1.5-0.5,1.5-1.3C43.6,22.7,43.1,22.1,42.1,22.1z"/>
		<path class="st1" d="M51.7,28.3c-0.7,0.6-1.6,0.9-2.5,0.9c-0.9,0-1.8-0.3-2.5-0.9c-0.9-0.9-1.1-2-1.1-3.3c0-1.3,0.2-2.5,1.1-3.3
			c0.7-0.6,1.6-0.9,2.5-0.9c0.9,0,1.8,0.3,2.5,0.9c0.9,0.9,1.1,2,1.1,3.3C52.8,26.3,52.6,27.4,51.7,28.3z M50.6,22.5
			c-0.3-0.3-0.9-0.5-1.4-0.5c-0.5,0-1,0.2-1.4,0.5c-0.6,0.6-0.6,1.6-0.6,2.4c0,0.8,0,1.8,0.6,2.4c0.3,0.3,0.9,0.5,1.4,0.5
			c0.5,0,1-0.2,1.4-0.5c0.6-0.6,0.6-1.6,0.6-2.4C51.2,24.2,51.2,23.1,50.6,22.5z"/>
		<path class="st1" d="M58.7,29l-1.4-3.1h-1.9V29h-1.6v-8.2h3.7c2.1,0,3,1.2,3,2.6c0,1.1-0.6,2-1.6,2.3l1.6,3.4H58.7z M57.4,22.1
			h-2.1v2.5h2.1c0.9,0,1.4-0.4,1.4-1.2C58.8,22.7,58.3,22.1,57.4,22.1z"/>
		<path class="st1" d="M65,22.2V29h-1.6v-6.8h-2.6v-1.4h6.7v1.4H65z"/>
		<path class="st1" d="M74.1,28.3c-0.7,0.6-1.7,0.9-2.7,0.9c-0.9,0-1.9-0.2-2.6-0.8c-0.5-0.4-0.9-1.1-0.9-1.9h1.6
			c0,0.4,0.2,0.8,0.5,1c0.4,0.3,1,0.4,1.5,0.4c0.6,0,1.2-0.1,1.5-0.4c0.2-0.2,0.3-0.4,0.3-0.8c0-0.6-0.5-0.9-1-1
			c-0.6-0.1-1.3-0.1-1.9-0.2C69,25.3,68,24.5,68,23.1c0-0.7,0.3-1.2,0.8-1.6c0.6-0.5,1.5-0.9,2.6-0.9c0.9,0,1.8,0.3,2.4,0.8
			c0.5,0.5,0.9,1.1,0.9,1.8H73c0-0.3-0.2-0.6-0.4-0.8c-0.3-0.3-0.9-0.4-1.3-0.4c-0.5,0-1.1,0.1-1.4,0.5c-0.2,0.2-0.3,0.4-0.3,0.7
			c0,0.5,0.4,0.8,0.9,0.9c0.6,0.1,1.3,0.1,1.9,0.2c1.3,0.2,2.4,1,2.4,2.4C74.8,27.3,74.5,27.9,74.1,28.3z"/>
		<path class="st1" d="M83.1,29v-5.9l-2.3,5.8h-1.2l-2.2-5.8V29h-1.5v-8.2H78l2.3,5.9l2.3-5.9h2V29H83.1z"/>
		<path class="st1" d="M91.7,28.3c-0.7,0.6-1.6,0.9-2.5,0.9c-0.9,0-1.8-0.3-2.5-0.9c-0.9-0.9-1.1-2-1.1-3.3c0-1.3,0.2-2.5,1.1-3.3
			c0.7-0.6,1.6-0.9,2.5-0.9c0.9,0,1.8,0.3,2.5,0.9c0.9,0.9,1.1,2,1.1,3.3C92.8,26.3,92.6,27.4,91.7,28.3z M90.6,22.5
			c-0.3-0.3-0.9-0.5-1.4-0.5c-0.5,0-1,0.2-1.4,0.5c-0.6,0.6-0.6,1.6-0.6,2.4c0,0.8,0,1.8,0.6,2.4c0.3,0.3,0.9,0.5,1.4,0.5
			c0.5,0,1-0.2,1.4-0.5c0.6-0.6,0.6-1.6,0.6-2.4C91.2,24.2,91.2,23.1,90.6,22.5z"/>
		<path class="st1" d="M97.2,29.2c-2.2,0-3.4-1.3-3.4-3.3v-5.1h1.6v5.1c0,1.2,0.6,2,1.8,2c1.3,0,1.8-0.8,1.8-2v-5.1h1.6v5.1
			C100.6,27.8,99.4,29.2,97.2,29.2z"/>
		<path class="st1" d="M105.6,22.2V29H104v-6.8h-2.6v-1.4h6.7v1.4H105.6z"/>
		<path class="st1" d="M114.1,29v-3.6h-3.6V29H109v-8.2h1.6V24h3.6v-3.2h1.6V29H114.1z"/>
	</g>
	<g>
		<path class="st1" d="M110.8,17.9c-0.5,0.5-1.1,0.7-1.8,0.7c-0.7,0-1.3-0.2-1.8-0.7c-0.7-0.6-0.8-1.4-0.8-2.4c0-1,0.1-1.8,0.8-2.4
			c0.5-0.5,1.1-0.7,1.8-0.7c0.7,0,1.3,0.2,1.8,0.7c0.7,0.6,0.8,1.4,0.8,2.4C111.6,16.4,111.4,17.2,110.8,17.9z M109.9,13.7
			c-0.2-0.3-0.6-0.4-1-0.4c-0.4,0-0.7,0.1-1,0.4c-0.4,0.4-0.5,1.2-0.5,1.7c0,0.5,0,1.3,0.5,1.7c0.2,0.3,0.6,0.4,1,0.4
			c0.4,0,0.7-0.1,1-0.4c0.4-0.4,0.5-1.2,0.5-1.7C110.4,14.9,110.4,14.2,109.9,13.7z"/>
		<path class="st1" d="M113.4,13.4V15h2.9v1h-2.9v2.4h-1.1v-6h4.3v1H113.4z"/>
	</g>
</g>
<g>
	<path class="st1" d="M21.7-0.1H1v20.7C1,26.4,5.6,31,11.4,31V10.3L21.7-0.1z"/>
	<path class="st1" d="M12.8,40V10.3h9c5.7,0,10.4,4.6,10.4,10.4c0,5.7-4.6,10.4-10.4,10.4L12.8,40z"/>
	<polygon class="st1" points="21.7,1.9 14.8,8.9 21.7,8.9 	"/>
</g>
</svg>
